Simulation
nRows=46
nColumns=15
endheader
time  TH_x TH_y TH_z SC_y  SC_z  SC_x  AC_y  AC_z  AC_x  GH_y  GH_z  GH_yy  EL_x  PS_y
8.073123595505619  0.000000  0.000000  0.000000  -23.417855196928254  6.071703759722943  -3.1469699946902843  58.29578423156641  7.62176243860298  7.824445491709769  -41.10479348487428  4.442402963678785  96.61412425063857  16.764640286871824  120.000000
8.113288389513109  0.000000  0.000000  0.000000  -23.057195751229226  5.9612254502216055  -3.7018423416880024  58.399587494884074  7.182127091975155  8.128960720364525  -26.888815476495047  5.405296451004813  81.85522719427517  16.274965933698393  120.000000
8.153453183520599  0.000000  0.000000  0.000000  -22.69185548711638  5.837268859194407  -4.2566131569365355  58.53224179091304  6.787411816309797  8.460553315173307  -16.4596698648597  6.634055486107692  70.71036255973316  15.729348219039982  120.000000
8.19361797752809  0.000000  0.000000  0.000000  -22.336734781217064  5.718037790674295  -4.7800521587255105  58.70082400363061  6.468121747532011  8.816651648668522  -8.617482324942289  8.089622993285827  61.98102778213684  15.14693503330321  120.000000
8.23378277153558  0.000000  0.000000  0.000000  -22.00817882044649  5.624367085920125  -5.243881597980105  58.91060638556805  6.250743581720483  9.192628252840777  -2.522446868738133  9.761581283051996  54.831946029417544  14.550091646996382  120.000000
8.273947565543072  0.000000  0.000000  0.000000  -21.721918881570126  5.573840218806406  -5.6243775238247595  59.16341286180167  6.153778466447281  9.583760430069319  2.3391283110111667  11.648329175829959  48.757396223679855  13.96154642218959  120.000000
8.314112359550561  0.000000  0.000000  0.000000  -21.489190575554428  5.578214624391777  -5.903072687164452  59.456803799029316  6.1859659244303975  9.985639459352226  6.2772536441592  13.744365502713888  43.45994687340547  13.401995556121877  120.000000
8.354277153558053  0.000000  0.000000  0.000000  -21.3129857123074  5.646081352640747  -6.066763244146542  59.79095719178259  6.347873784172011  10.391064791003076  9.506639537348718  16.0374942435761  38.74223618380987  12.887549266451323  120.000000
8.394441947565543  0.000000  0.000000  0.000000  -21.187638242096394  5.781008509467871  -6.1050371706402276  60.16571854435935  6.634121556199351  10.794998802847955  12.182257471521138  18.50921469264233  34.471245410933406  12.428838453442413  120.000000
8.434606741573035  0.000000  0.000000  0.000000  -21.103850279684472  5.979938254426846  -6.009745124473703  60.57597187705014  7.033683434260777  11.198153020715605  14.410620181674437  21.134569975369786  30.56603394487273  12.030466913081016  120.000000
8.474771535580524  0.000000  0.000000  0.000000  -21.05084258896731  6.236722649619622  -5.778501851662797  61.016072725653075  7.530676373077344  11.598962419531405  16.267586613384566  23.88369910452872  26.976831379272536  11.690546101485543  120.000000
8.514936329588014  0.000000  0.000000  0.000000  -21.019573141462423  6.5447580294318675  -5.413626904862786  61.48029123617341  8.105128035660666  11.99387628387917  17.809799461895242  26.72192108846831  23.672527720169917  11.403653024868209  120.000000
8.555101123595506  0.000000  0.000000  0.000000  -21.005608978892713  6.8958795974613984  -4.919843745701206  61.96072442886578  8.73308337275537  12.380840717307535  19.084386379720282  29.612587031687802  20.629071665170663  11.162962848457479  120.000000
8.595265917602996  0.000000  0.000000  0.000000  -21.007655460766046  7.279604699965194  -4.304223908586848  62.44662705874187  9.388618757879698  12.75776568787488  20.129780540159306  32.51923068024404  17.82706197031964  10.961714796512394  120.000000
8.635430711610487  0.000000  0.000000  0.000000  -21.02812249477012  7.68525735107166  -3.5755090058024273  62.92561979274662  10.045691418977187  13.12225759681095  20.97809460560406  35.407437027252286  15.249195498823806  10.793934411100574  120.000000
8.675595505617977  0.000000  0.000000  0.000000  -21.071459759240838  8.103398718829778  -2.7428801608360094  63.385282666739855  10.680570926326803  13.471451974144488  21.656623675729687  38.24692876072866  12.87833558190523  10.654569384982238  120.000000
8.715760299625469  0.000000  0.000000  0.000000  -21.142818973907147  8.52608194437455  -1.8154679237243159  63.814139587833125  11.27307250889782  13.802356285551443  22.187438301463292  41.01164713126338  10.698480235150306  10.539705043240131  120.000000
8.755925093632959  0.000000  0.000000  0.000000  -21.247392984357834  8.946725619629735  -0.8031677637935457  64.2019569706238  11.806368713426538  14.112243980592778  22.588240464232484  43.67907532906896  8.694434270004345  10.446510992664857  120.000000
8.79608988764045  0.000000  0.000000  0.000000  -21.38874401728737  9.359617356689549  0.28257765098385407  64.5406643965455  12.267179614318621  14.398658526277519  22.873550909033586  46.22940230300624  6.851790994102197  10.373120544087165  120.000000
8.83625468164794  0.000000  0.000000  0.000000  -21.56785413662705  9.759898796098826  1.4285458675143439  64.82530419526542  12.645924946063769  14.659495050361137  23.056578961701437  48.64554284165973  5.15625033236853  10.318399376788856  120.000000
8.87641947565543  0.000000  0.000000  0.000000  -21.78284557029771  10.143598436066249  2.61999932355704  65.05402211320411  12.937210702651042  14.893124737596976  23.149569598713594  50.913137368040154  3.594274018569266  10.28168109628605  120.000000
8.916584269662922  0.000000  0.000000  0.000000  -22.029646277542707  10.50772500104239  3.8411862747463204  65.22763312935331  13.140008784993435  15.098482184179659  23.164202712644453  53.02087529259332  2.1537306008049932  10.262141836177204  120.000000
8.956749063670411  0.000000  0.000000  0.000000  -22.30258131896302  10.850185457516513  5.075935845854978  65.34923286719784  13.257658116176495  15.275089714373461  23.111789050927122  54.96063332762577  0.824622640258162  10.258340010441154  120.000000
8.996913857677903  0.000000  0.000000  0.000000  -22.595195254852577  11.169581651735736  6.3082303671591795  65.4235574569006  13.297356543403504  15.423150855897793  23.003747334479016  56.72751736360026  -0.40024792925892066  10.26788735603144  120.000000
9.037078651685393  0.000000  0.000000  0.000000  -22.900973438089856  11.464997675527002  7.522845312105372  65.45635996528529  13.269449961543947  15.5436433526259  22.851768026409857  58.31984532264517  -1.5249114329300733  10.287309779896026  120.000000
9.077243445692885  0.000000  0.000000  0.000000  -23.213887514525396  11.735902163185166  8.706001175732457  65.45369448638994  13.1867277052222  15.638267836010334  22.66784544272352  59.739096686851674  -2.5502164817907884  10.312148210702695  120.000000
9.117408239700374  0.000000  0.000000  0.000000  -23.528753780078016  11.982073592451068  9.845703418108005  65.42158896788101  13.063392367103352  15.709379094740038  22.464060009842253  60.98944189112937  -3.4744873500694426  10.337488266269542  120.000000
9.157573033707866  0.000000  0.000000  0.000000  -23.84093954629145  12.203231800245595  10.931500183179171  65.3659111138052  12.913634536263897  15.759777626002958  22.252487647857794  62.07667965640715  -4.294589816479894  10.35865529216526  120.000000
9.197737827715356  0.000000  0.000000  0.000000  -24.145853338486745  12.398835197728397  11.953932657749956  65.29268200289238  12.750158235842907  15.792328847706033  22.045007561046905  63.00683977854025  -5.007266219826063  10.372008984729012  120.000000
9.237902621722846  0.000000  0.000000  0.000000  -24.438388653047475  12.568100780439313  12.90394854303363  65.20838717640532  12.583096557354216  15.809426671808616  21.853129192607376  63.78483720972431  -5.61030298484734  10.375587552518944  120.000000
9.278067415730337  0.000000  0.000000  0.000000  -24.712342928480805  12.710042588839329  13.77252004217013  65.12025675416605  12.419282179662776  15.8126745843754  21.68780633738052  64.4133731920708  -6.103373734858473  10.369333807323034  120.000000
9.318232209737827  0.000000  0.000000  0.000000  -24.960172262823022  12.823521426400331  14.550553717364444  65.03625851125283  12.26204270490342  15.802625744441693  21.55934429742515  64.89223119343836  -6.488256038237781  10.354841531845802  120.000000
9.358397003745319  0.000000  0.000000  0.000000  -25.173227560967195  12.90740640821468  15.22903563466163  64.96477703726427  12.111491711080333  15.77863160267271  21.477072298033455  65.218098681447  -6.768368846365841  10.334587626932228  120.000000
9.398561797752809  0.000000  0.000000  0.000000  -25.342345134194414  12.96070290755283  15.79931032966227  64.9138642953146  11.965216296499133  15.738808596905804  21.448942280511798  65.38473828381895  -6.947881197423289  10.310891813473892  120.000000
9.4387265917603  0.000000  0.000000  0.000000  -25.458672077698612  12.982622964765174  16.253342584528998  64.89043163348512  11.819052324988393  15.68015697804267  21.481060117793806  65.38344163159884  -7.030612448784451  10.28494957905489  120.000000
9.47889138576779  0.000000  0.000000  0.000000  -25.51443396316042  12.972559325107882  16.58380133218282  64.8993935444228  11.667861885788563  15.598859933284398  21.577386499043563  65.20354208417854  -7.019035750567551  10.256184230984987  120.000000
9.519056179775282  0.000000  0.000000  0.000000  -25.5035494469855  12.92999993324233  16.7840667928763  64.9430607420955  11.506104190961636  15.490693158832974  21.739507182716075  64.83291071139756  -6.913518722245476  10.222269239097209  120.000000
9.559220973782772  0.000000  0.000000  0.000000  -25.422133779906126  12.854400720103792  16.848047015956446  65.02069165647022  11.328360574701513  15.351552349995675  21.966540618740673  64.25850826057808  -6.711967598058633  10.179774453297577  120.000000
9.599385767790261  0.000000  0.000000  0.000000  -25.26877162090754  12.745055919590373  16.770245451926197  65.12815995570661  11.129637872644807  15.178039583009259  22.254944411630877  63.46685080537455  -6.40970620878974  10.125471841730608  120.000000
9.639550561797753  0.000000  0.000000  0.000000  -25.044753511160856  12.60118508523213  16.545771328578525  65.25811354457362  10.905595981110974  14.967739188806014  22.59848171014758  62.44465485339779  -5.999564484241881  10.057876488509784  120.000000
9.679715355805243  0.000000  0.000000  0.000000  -24.754295282082794  12.42192066763671  16.170194759312814  65.3999959306032  10.653227725064488  14.719754864347786  22.98799770428048  61.17941923750594  -5.472061645423648  9.97877724188665  120.000000
9.719880149812735  0.000000  0.000000  0.000000  -24.405026130268745  12.206332788028346  15.64010929147247  65.53990873840011  10.371215473974772  14.435095072761722  23.410848305494515  59.66060737986351  -4.815354149181526  9.894185496716316  120.000000
9.760044943820224  0.000000  0.000000  0.000000  -24.00867735669606  11.953736593802532  14.95436510846782  65.66102232690848  10.060339472127417  14.116614370270465  23.85041430789034  57.88090459664822  -4.015166012547863  9.814474161619138  120.000000
9.800209737827716  0.000000  0.000000  0.000000  -23.5809027844731  11.663948637624143  14.115172019797022  65.74447074411573  9.723702205563168  13.768917634181188  24.285944579251087  55.83786434671288  -3.0547380691514046  9.75369276449783  120.000000
9.840374531835206  0.000000  0.000000  0.000000  -23.140633250534304  11.337676430223166  13.129531825569794  65.7708258406677  9.36698500551906  13.39823318671087  24.6926266043331  53.535401066804816  -1.9149424495245062  9.72845545290653  120.000000
9.880539325842697  0.000000  0.000000  0.000000  -22.708897783558527  10.97718047609977  12.010378369148318  65.72214581667417  8.998687475684733  13.012136450936147  25.04185442747916  50.985504843020536  -0.5745572644455388  9.756582923092282  120.000000
